<mxfile host="app.diagrams.net" modified="2022-04-22T03:51:45.189Z" agent="5.0 (Windows NT 6.1; Win64; x64) AppleWebKit/537.36 (KHTML, like Gecko) Chrome/96.0.4664.45 Safari/537.36" etag="gAxgzq1cFCqP4yvvkqY2" version="17.4.5" type="github">
  <diagram id="sn-Xa5F51a8iSMJslYyV" name="第 1 页">
    <mxGraphModel dx="1591" dy="763" grid="1" gridSize="10" guides="1" tooltips="1" connect="1" arrows="1" fold="1" page="1" pageScale="1" pageWidth="827" pageHeight="1169" math="0" shadow="0">
      <root>
        <mxCell id="0" />
        <mxCell id="1" parent="0" />
        <mxCell id="MGi_BoDogT2WPM0yTLJ8-32" style="edgeStyle=none;rounded=0;orthogonalLoop=1;jettySize=auto;html=1;entryX=0.5;entryY=0;entryDx=0;entryDy=0;fontSize=18;exitX=0.5;exitY=1;exitDx=0;exitDy=0;fillColor=#FF9999;" edge="1" parent="1" source="MGi_BoDogT2WPM0yTLJ8-1" target="MGi_BoDogT2WPM0yTLJ8-6">
          <mxGeometry relative="1" as="geometry" />
        </mxCell>
        <mxCell id="MGi_BoDogT2WPM0yTLJ8-33" style="edgeStyle=none;rounded=0;orthogonalLoop=1;jettySize=auto;html=1;entryX=0.5;entryY=0;entryDx=0;entryDy=0;fontSize=18;exitX=0.5;exitY=1;exitDx=0;exitDy=0;" edge="1" parent="1" source="MGi_BoDogT2WPM0yTLJ8-1" target="MGi_BoDogT2WPM0yTLJ8-9">
          <mxGeometry relative="1" as="geometry" />
        </mxCell>
        <mxCell id="MGi_BoDogT2WPM0yTLJ8-1" value="&lt;b&gt;&lt;font style=&quot;font-size: 18px&quot;&gt;0&lt;/font&gt;&lt;/b&gt;" style="ellipse;whiteSpace=wrap;html=1;aspect=fixed;" vertex="1" parent="1">
          <mxGeometry x="360" y="10" width="60" height="60" as="geometry" />
        </mxCell>
        <mxCell id="MGi_BoDogT2WPM0yTLJ8-5" value="f (4)" style="text;html=1;strokeColor=none;fillColor=none;align=center;verticalAlign=middle;whiteSpace=wrap;rounded=0;" vertex="1" parent="1">
          <mxGeometry x="366" y="18" width="46" height="10" as="geometry" />
        </mxCell>
        <mxCell id="MGi_BoDogT2WPM0yTLJ8-34" style="edgeStyle=none;rounded=0;orthogonalLoop=1;jettySize=auto;html=1;exitX=0.5;exitY=1;exitDx=0;exitDy=0;entryX=0.5;entryY=0;entryDx=0;entryDy=0;fontSize=18;" edge="1" parent="1" source="MGi_BoDogT2WPM0yTLJ8-6" target="MGi_BoDogT2WPM0yTLJ8-11">
          <mxGeometry relative="1" as="geometry" />
        </mxCell>
        <mxCell id="MGi_BoDogT2WPM0yTLJ8-35" style="edgeStyle=none;rounded=0;orthogonalLoop=1;jettySize=auto;html=1;exitX=0.5;exitY=1;exitDx=0;exitDy=0;entryX=0.5;entryY=0;entryDx=0;entryDy=0;fontSize=18;" edge="1" parent="1" source="MGi_BoDogT2WPM0yTLJ8-6" target="MGi_BoDogT2WPM0yTLJ8-20">
          <mxGeometry relative="1" as="geometry" />
        </mxCell>
        <mxCell id="MGi_BoDogT2WPM0yTLJ8-6" value="&lt;b&gt;&lt;font style=&quot;font-size: 18px&quot;&gt;1&lt;/font&gt;&lt;/b&gt;" style="ellipse;whiteSpace=wrap;html=1;aspect=fixed;" vertex="1" parent="1">
          <mxGeometry x="240" y="90" width="60" height="60" as="geometry" />
        </mxCell>
        <mxCell id="MGi_BoDogT2WPM0yTLJ8-7" value="f (3)" style="text;html=1;strokeColor=none;fillColor=none;align=center;verticalAlign=middle;whiteSpace=wrap;rounded=0;" vertex="1" parent="1">
          <mxGeometry x="246" y="98" width="46" height="10" as="geometry" />
        </mxCell>
        <mxCell id="MGi_BoDogT2WPM0yTLJ8-40" style="edgeStyle=none;rounded=0;orthogonalLoop=1;jettySize=auto;html=1;exitX=0.5;exitY=1;exitDx=0;exitDy=0;entryX=0.5;entryY=0;entryDx=0;entryDy=0;fontSize=18;" edge="1" parent="1" source="MGi_BoDogT2WPM0yTLJ8-9" target="MGi_BoDogT2WPM0yTLJ8-14">
          <mxGeometry relative="1" as="geometry" />
        </mxCell>
        <mxCell id="MGi_BoDogT2WPM0yTLJ8-41" style="edgeStyle=none;rounded=0;orthogonalLoop=1;jettySize=auto;html=1;exitX=0.5;exitY=1;exitDx=0;exitDy=0;entryX=0.5;entryY=0;entryDx=0;entryDy=0;fontSize=18;" edge="1" parent="1" source="MGi_BoDogT2WPM0yTLJ8-9" target="MGi_BoDogT2WPM0yTLJ8-16">
          <mxGeometry relative="1" as="geometry" />
        </mxCell>
        <mxCell id="MGi_BoDogT2WPM0yTLJ8-9" value="&lt;span style=&quot;font-size: 18px&quot;&gt;&lt;b&gt;2&lt;/b&gt;&lt;/span&gt;" style="ellipse;whiteSpace=wrap;html=1;aspect=fixed;" vertex="1" parent="1">
          <mxGeometry x="485" y="99" width="60" height="60" as="geometry" />
        </mxCell>
        <mxCell id="MGi_BoDogT2WPM0yTLJ8-10" value="f (2)" style="text;html=1;strokeColor=none;fillColor=none;align=center;verticalAlign=middle;whiteSpace=wrap;rounded=0;" vertex="1" parent="1">
          <mxGeometry x="491" y="108" width="46" height="10" as="geometry" />
        </mxCell>
        <mxCell id="MGi_BoDogT2WPM0yTLJ8-36" style="edgeStyle=none;rounded=0;orthogonalLoop=1;jettySize=auto;html=1;exitX=0.5;exitY=1;exitDx=0;exitDy=0;entryX=0.5;entryY=0;entryDx=0;entryDy=0;fontSize=18;" edge="1" parent="1" source="MGi_BoDogT2WPM0yTLJ8-11" target="MGi_BoDogT2WPM0yTLJ8-24">
          <mxGeometry relative="1" as="geometry" />
        </mxCell>
        <mxCell id="MGi_BoDogT2WPM0yTLJ8-37" style="edgeStyle=none;rounded=0;orthogonalLoop=1;jettySize=auto;html=1;exitX=0.5;exitY=1;exitDx=0;exitDy=0;entryX=0.5;entryY=0;entryDx=0;entryDy=0;fontSize=18;" edge="1" parent="1" source="MGi_BoDogT2WPM0yTLJ8-11" target="MGi_BoDogT2WPM0yTLJ8-26">
          <mxGeometry relative="1" as="geometry" />
        </mxCell>
        <mxCell id="MGi_BoDogT2WPM0yTLJ8-11" value="&lt;b&gt;&lt;font style=&quot;font-size: 18px&quot;&gt;1&lt;/font&gt;&lt;/b&gt;" style="ellipse;whiteSpace=wrap;html=1;aspect=fixed;" vertex="1" parent="1">
          <mxGeometry x="180" y="180" width="60" height="60" as="geometry" />
        </mxCell>
        <mxCell id="MGi_BoDogT2WPM0yTLJ8-12" value="f (2)" style="text;html=1;strokeColor=none;fillColor=none;align=center;verticalAlign=middle;whiteSpace=wrap;rounded=0;" vertex="1" parent="1">
          <mxGeometry x="186" y="188" width="46" height="10" as="geometry" />
        </mxCell>
        <mxCell id="MGi_BoDogT2WPM0yTLJ8-43" style="edgeStyle=none;rounded=0;orthogonalLoop=1;jettySize=auto;html=1;exitX=0.5;exitY=1;exitDx=0;exitDy=0;entryX=0.5;entryY=0;entryDx=0;entryDy=0;fontSize=18;strokeColor=#000000;fillColor=#FF9999;" edge="1" parent="1" source="MGi_BoDogT2WPM0yTLJ8-14" target="MGi_BoDogT2WPM0yTLJ8-18">
          <mxGeometry relative="1" as="geometry" />
        </mxCell>
        <mxCell id="MGi_BoDogT2WPM0yTLJ8-14" value="&lt;span style=&quot;font-size: 18px&quot;&gt;&lt;b&gt;1&lt;/b&gt;&lt;/span&gt;" style="ellipse;whiteSpace=wrap;html=1;aspect=fixed;" vertex="1" parent="1">
          <mxGeometry x="461" y="259" width="60" height="60" as="geometry" />
        </mxCell>
        <mxCell id="MGi_BoDogT2WPM0yTLJ8-15" value="f (1)" style="text;html=1;strokeColor=none;fillColor=none;align=center;verticalAlign=middle;whiteSpace=wrap;rounded=0;" vertex="1" parent="1">
          <mxGeometry x="467" y="268" width="46" height="10" as="geometry" />
        </mxCell>
        <mxCell id="MGi_BoDogT2WPM0yTLJ8-16" value="&lt;span style=&quot;font-size: 18px&quot;&gt;&lt;b&gt;2&lt;/b&gt;&lt;/span&gt;" style="ellipse;whiteSpace=wrap;html=1;aspect=fixed;" vertex="1" parent="1">
          <mxGeometry x="580" y="350" width="60" height="60" as="geometry" />
        </mxCell>
        <mxCell id="MGi_BoDogT2WPM0yTLJ8-17" value="f (0)" style="text;html=1;strokeColor=none;fillColor=none;align=center;verticalAlign=middle;whiteSpace=wrap;rounded=0;" vertex="1" parent="1">
          <mxGeometry x="586" y="359" width="46" height="10" as="geometry" />
        </mxCell>
        <mxCell id="MGi_BoDogT2WPM0yTLJ8-18" value="&lt;span style=&quot;font-size: 18px&quot;&gt;&lt;b&gt;1&lt;/b&gt;&lt;/span&gt;" style="ellipse;whiteSpace=wrap;html=1;aspect=fixed;" vertex="1" parent="1">
          <mxGeometry x="461" y="350" width="60" height="60" as="geometry" />
        </mxCell>
        <mxCell id="MGi_BoDogT2WPM0yTLJ8-19" value="f (0)" style="text;html=1;strokeColor=none;fillColor=none;align=center;verticalAlign=middle;whiteSpace=wrap;rounded=0;" vertex="1" parent="1">
          <mxGeometry x="467" y="359" width="46" height="10" as="geometry" />
        </mxCell>
        <mxCell id="MGi_BoDogT2WPM0yTLJ8-39" style="edgeStyle=none;rounded=0;orthogonalLoop=1;jettySize=auto;html=1;exitX=0.5;exitY=1;exitDx=0;exitDy=0;entryX=0.5;entryY=0;entryDx=0;entryDy=0;fontSize=18;" edge="1" parent="1" source="MGi_BoDogT2WPM0yTLJ8-20" target="MGi_BoDogT2WPM0yTLJ8-22">
          <mxGeometry relative="1" as="geometry" />
        </mxCell>
        <mxCell id="MGi_BoDogT2WPM0yTLJ8-20" value="&lt;span style=&quot;font-size: 18px&quot;&gt;&lt;b&gt;2&lt;/b&gt;&lt;/span&gt;" style="ellipse;whiteSpace=wrap;html=1;aspect=fixed;" vertex="1" parent="1">
          <mxGeometry x="300" y="179" width="60" height="60" as="geometry" />
        </mxCell>
        <mxCell id="MGi_BoDogT2WPM0yTLJ8-21" value="f (1)" style="text;html=1;strokeColor=none;fillColor=none;align=center;verticalAlign=middle;whiteSpace=wrap;rounded=0;" vertex="1" parent="1">
          <mxGeometry x="306" y="187" width="46" height="10" as="geometry" />
        </mxCell>
        <mxCell id="MGi_BoDogT2WPM0yTLJ8-22" value="&lt;span style=&quot;font-size: 18px&quot;&gt;&lt;b&gt;1&lt;/b&gt;&lt;/span&gt;" style="ellipse;whiteSpace=wrap;html=1;aspect=fixed;" vertex="1" parent="1">
          <mxGeometry x="300" y="350" width="60" height="60" as="geometry" />
        </mxCell>
        <mxCell id="MGi_BoDogT2WPM0yTLJ8-23" value="f (0)" style="text;html=1;strokeColor=none;fillColor=none;align=center;verticalAlign=middle;whiteSpace=wrap;rounded=0;" vertex="1" parent="1">
          <mxGeometry x="306" y="358" width="46" height="10" as="geometry" />
        </mxCell>
        <mxCell id="MGi_BoDogT2WPM0yTLJ8-24" value="&lt;span style=&quot;font-size: 18px&quot;&gt;&lt;b&gt;2&lt;/b&gt;&lt;/span&gt;" style="ellipse;whiteSpace=wrap;html=1;aspect=fixed;" vertex="1" parent="1">
          <mxGeometry x="90" y="350" width="60" height="60" as="geometry" />
        </mxCell>
        <mxCell id="MGi_BoDogT2WPM0yTLJ8-25" value="f (0)" style="text;html=1;strokeColor=none;fillColor=none;align=center;verticalAlign=middle;whiteSpace=wrap;rounded=0;" vertex="1" parent="1">
          <mxGeometry x="96" y="358" width="46" height="10" as="geometry" />
        </mxCell>
        <mxCell id="MGi_BoDogT2WPM0yTLJ8-38" style="edgeStyle=none;rounded=0;orthogonalLoop=1;jettySize=auto;html=1;exitX=0.5;exitY=1;exitDx=0;exitDy=0;entryX=0.5;entryY=0;entryDx=0;entryDy=0;fontSize=18;" edge="1" parent="1" source="MGi_BoDogT2WPM0yTLJ8-26" target="MGi_BoDogT2WPM0yTLJ8-28">
          <mxGeometry relative="1" as="geometry" />
        </mxCell>
        <mxCell id="MGi_BoDogT2WPM0yTLJ8-26" value="&lt;span style=&quot;font-size: 18px&quot;&gt;&lt;b&gt;1&lt;/b&gt;&lt;/span&gt;" style="ellipse;whiteSpace=wrap;html=1;aspect=fixed;" vertex="1" parent="1">
          <mxGeometry x="200" y="259" width="60" height="60" as="geometry" />
        </mxCell>
        <mxCell id="MGi_BoDogT2WPM0yTLJ8-27" value="f (1)" style="text;html=1;strokeColor=none;fillColor=none;align=center;verticalAlign=middle;whiteSpace=wrap;rounded=0;" vertex="1" parent="1">
          <mxGeometry x="206" y="267" width="46" height="10" as="geometry" />
        </mxCell>
        <mxCell id="MGi_BoDogT2WPM0yTLJ8-28" value="&lt;span style=&quot;font-size: 18px&quot;&gt;&lt;b&gt;1&lt;/b&gt;&lt;/span&gt;" style="ellipse;whiteSpace=wrap;html=1;aspect=fixed;" vertex="1" parent="1">
          <mxGeometry x="200" y="350" width="60" height="60" as="geometry" />
        </mxCell>
        <mxCell id="MGi_BoDogT2WPM0yTLJ8-29" value="f (0)" style="text;html=1;strokeColor=none;fillColor=none;align=center;verticalAlign=middle;whiteSpace=wrap;rounded=0;" vertex="1" parent="1">
          <mxGeometry x="206" y="358" width="46" height="10" as="geometry" />
        </mxCell>
      </root>
    </mxGraphModel>
  </diagram>
</mxfile>
